<svg width="730" height="73" viewBox="0 0 730 73" fill="none" xmlns="http://www.w3.org/2000/svg">
<mask id="path-1-outside-1_153_2" maskUnits="userSpaceOnUse" x="0" y="0" width="730" height="73" fill="black">
<rect fill="white" width="730" height="73"/>
<path d="M38.608 71.152C33.296 71.152 28.368 70.288 23.824 68.56C19.344 66.832 15.44 64.4 12.112 61.264C8.848 58.128 6.288 54.448 4.432 50.224C2.64 46 1.744 41.392 1.744 36.4C1.744 31.408 2.64 26.8 4.432 22.576C6.288 18.352 8.88 14.672 12.208 11.536C15.536 8.4 19.44 5.96799 23.92 4.23999C28.4 2.512 33.264 1.648 38.512 1.648C43.824 1.648 48.688 2.512 53.104 4.23999C57.584 5.96799 61.456 8.4 64.72 11.536C68.048 14.672 70.64 18.352 72.496 22.576C74.352 26.736 75.28 31.344 75.28 36.4C75.28 41.392 74.352 46.032 72.496 50.32C70.64 54.544 68.048 58.224 64.72 61.36C61.456 64.432 57.584 66.832 53.104 68.56C48.688 70.288 43.856 71.152 38.608 71.152ZM38.512 57.904C41.52 57.904 44.272 57.392 46.768 56.368C49.328 55.344 51.568 53.872 53.488 51.952C55.408 50.032 56.88 47.76 57.904 45.136C58.992 42.512 59.536 39.6 59.536 36.4C59.536 33.2 58.992 30.288 57.904 27.664C56.88 25.04 55.408 22.768 53.488 20.848C51.632 18.928 49.424 17.456 46.864 16.432C44.304 15.408 41.52 14.896 38.512 14.896C35.504 14.896 32.72 15.408 30.16 16.432C27.664 17.456 25.456 18.928 23.536 20.848C21.616 22.768 20.112 25.04 19.024 27.664C18 30.288 17.488 33.2 17.488 36.4C17.488 39.536 18 42.448 19.024 45.136C20.112 47.76 21.584 50.032 23.44 51.952C25.36 53.872 27.6 55.344 30.16 56.368C32.72 57.392 35.504 57.904 38.512 57.904ZM116.824 71.152C107.288 71.152 99.832 68.496 94.456 63.184C89.08 57.872 86.392 50.288 86.392 40.432V2.8H101.944V39.856C101.944 46.256 103.256 50.864 105.88 53.68C108.504 56.496 112.184 57.904 116.92 57.904C121.656 57.904 125.336 56.496 127.96 53.68C130.584 50.864 131.896 46.256 131.896 39.856V2.8H147.256V40.432C147.256 50.288 144.568 57.872 139.192 63.184C133.816 68.496 126.36 71.152 116.824 71.152ZM162.624 70V2.8H191.712C197.728 2.8 202.912 3.792 207.264 5.776C211.616 7.696 214.976 10.48 217.344 14.128C219.712 17.776 220.896 22.128 220.896 27.184C220.896 32.176 219.712 36.496 217.344 40.144C214.976 43.728 211.616 46.48 207.264 48.4C202.912 50.32 197.728 51.28 191.712 51.28H171.264L178.176 44.464V70H162.624ZM205.344 70L188.544 45.616H205.152L222.144 70H205.344ZM178.176 46.192L171.264 38.896H190.848C195.648 38.896 199.232 37.872 201.6 35.824C203.968 33.712 205.152 30.832 205.152 27.184C205.152 23.472 203.968 20.592 201.6 18.544C199.232 16.496 195.648 15.472 190.848 15.472H171.264L178.176 8.08V46.192ZM282.486 71.152C277.11 71.152 271.958 70.448 267.03 69.04C262.102 67.568 258.134 65.68 255.126 63.376L260.406 51.664C263.286 53.712 266.678 55.408 270.582 56.752C274.55 58.032 278.55 58.672 282.582 58.672C285.654 58.672 288.118 58.384 289.974 57.808C291.894 57.168 293.302 56.304 294.198 55.216C295.094 54.128 295.542 52.88 295.542 51.472C295.542 49.68 294.838 48.272 293.43 47.248C292.022 46.16 290.166 45.296 287.862 44.656C285.558 43.952 282.998 43.312 280.182 42.736C277.43 42.096 274.646 41.328 271.83 40.432C269.078 39.536 266.55 38.384 264.246 36.976C261.942 35.568 260.054 33.712 258.582 31.408C257.174 29.104 256.47 26.16 256.47 22.576C256.47 18.736 257.494 15.248 259.542 12.112C261.654 8.91199 264.79 6.384 268.95 4.528C273.174 2.608 278.454 1.648 284.79 1.648C289.014 1.648 293.174 2.16 297.27 3.184C301.366 4.144 304.982 5.616 308.118 7.6L303.318 19.408C300.182 17.616 297.046 16.304 293.91 15.472C290.774 14.576 287.702 14.128 284.694 14.128C281.686 14.128 279.222 14.48 277.302 15.184C275.382 15.888 274.006 16.816 273.174 17.968C272.342 19.056 271.926 20.336 271.926 21.808C271.926 23.536 272.63 24.944 274.038 26.032C275.446 27.056 277.302 27.888 279.606 28.528C281.91 29.168 284.438 29.808 287.19 30.448C290.006 31.088 292.79 31.824 295.542 32.656C298.358 33.488 300.918 34.608 303.222 36.016C305.526 37.424 307.382 39.28 308.79 41.584C310.262 43.888 310.998 46.8 310.998 50.32C310.998 54.096 309.942 57.552 307.83 60.688C305.718 63.824 302.55 66.352 298.326 68.272C294.166 70.192 288.886 71.152 282.486 71.152ZM334.607 70V15.472H313.103V2.8H371.663V15.472H350.159V70H334.607ZM411.733 71.152C406.421 71.152 401.493 70.288 396.949 68.56C392.469 66.832 388.565 64.4 385.237 61.264C381.973 58.128 379.413 54.448 377.557 50.224C375.765 46 374.869 41.392 374.869 36.4C374.869 31.408 375.765 26.8 377.557 22.576C379.413 18.352 382.005 14.672 385.333 11.536C388.661 8.4 392.565 5.96799 397.045 4.23999C401.525 2.512 406.389 1.648 411.637 1.648C416.949 1.648 421.813 2.512 426.229 4.23999C430.709 5.96799 434.581 8.4 437.845 11.536C441.173 14.672 443.765 18.352 445.621 22.576C447.477 26.736 448.405 31.344 448.405 36.4C448.405 41.392 447.477 46.032 445.621 50.32C443.765 54.544 441.173 58.224 437.845 61.36C434.581 64.432 430.709 66.832 426.229 68.56C421.813 70.288 416.981 71.152 411.733 71.152ZM411.637 57.904C414.645 57.904 417.397 57.392 419.893 56.368C422.453 55.344 424.693 53.872 426.613 51.952C428.533 50.032 430.005 47.76 431.029 45.136C432.117 42.512 432.661 39.6 432.661 36.4C432.661 33.2 432.117 30.288 431.029 27.664C430.005 25.04 428.533 22.768 426.613 20.848C424.757 18.928 422.549 17.456 419.989 16.432C417.429 15.408 414.645 14.896 411.637 14.896C408.629 14.896 405.845 15.408 403.285 16.432C400.789 17.456 398.581 18.928 396.661 20.848C394.741 22.768 393.237 25.04 392.149 27.664C391.125 30.288 390.613 33.2 390.613 36.4C390.613 39.536 391.125 42.448 392.149 45.136C393.237 47.76 394.709 50.032 396.565 51.952C398.485 53.872 400.725 55.344 403.285 56.368C405.845 57.392 408.629 57.904 411.637 57.904ZM460.093 70V2.8H489.181C495.197 2.8 500.381 3.792 504.733 5.776C509.085 7.696 512.445 10.48 514.813 14.128C517.181 17.776 518.365 22.128 518.365 27.184C518.365 32.176 517.181 36.496 514.813 40.144C512.445 43.728 509.085 46.48 504.733 48.4C500.381 50.32 495.197 51.28 489.181 51.28H468.733L475.645 44.464V70H460.093ZM502.813 70L486.013 45.616H502.621L519.613 70H502.813ZM475.645 46.192L468.733 38.896H488.317C493.117 38.896 496.701 37.872 499.069 35.824C501.437 33.712 502.621 30.832 502.621 27.184C502.621 23.472 501.437 20.592 499.069 18.544C496.701 16.496 493.117 15.472 488.317 15.472H468.733L475.645 8.08V46.192ZM546.453 70V42.544L550.005 51.952L520.437 2.8H536.949L559.605 40.528H550.101L572.853 2.8H588.117L558.549 51.952L562.005 42.544V70H546.453ZM700.398 48.976V36.976H727.566V48.976H700.398Z"/>
</mask>
<path d="M23.824 68.56L23.2842 69.9595L23.2908 69.962L23.824 68.56ZM12.112 61.264L11.0728 62.3457L11.078 62.3507L11.0833 62.3557L12.112 61.264ZM4.432 50.224L3.05113 50.8098L3.05487 50.8186L3.05872 50.8274L4.432 50.224ZM4.432 22.576L3.05872 21.9726L3.05487 21.9814L3.05113 21.9902L4.432 22.576ZM23.92 4.23999L23.3802 2.84049L23.3802 2.84049L23.92 4.23999ZM53.104 4.23999L52.5574 5.63688L52.5642 5.6395L53.104 4.23999ZM64.72 11.536L63.6808 12.6177L63.686 12.6227L63.6913 12.6277L64.72 11.536ZM72.496 22.576L71.1227 23.1794L71.1262 23.1872L72.496 22.576ZM72.496 50.32L73.8693 50.9234L73.8726 50.9158L72.496 50.32ZM64.72 61.36L65.7481 62.4523L65.7487 62.4517L64.72 61.36ZM53.104 68.56L52.5642 67.1605L52.5574 67.1631L53.104 68.56ZM46.768 56.368L46.2109 54.9752L46.1987 54.9802L46.768 56.368ZM53.488 51.952L52.4273 50.8913L52.4273 50.8913L53.488 51.952ZM57.904 45.136L56.5184 44.5615L56.5124 44.576L56.5066 44.5907L57.904 45.136ZM57.904 27.664L56.5066 28.2093L56.5124 28.224L56.5184 28.2385L57.904 27.664ZM53.488 20.848L52.4095 21.8905L52.4184 21.8997L52.4273 21.9087L53.488 20.848ZM46.864 16.432L46.3069 17.8247L46.3069 17.8247L46.864 16.432ZM30.16 16.432L29.6029 15.0392L29.5907 15.0442L30.16 16.432ZM23.536 20.848L24.5967 21.9087L24.5967 21.9087L23.536 20.848ZM19.024 27.664L17.6384 27.0895L17.6324 27.104L17.6266 27.1187L19.024 27.664ZM19.024 45.136L17.6223 45.67L17.63 45.6904L17.6384 45.7105L19.024 45.136ZM23.44 51.952L22.3615 52.9945L22.3704 53.0037L22.3793 53.0127L23.44 51.952ZM30.16 56.368L29.6029 57.7607L29.6029 57.7607L30.16 56.368ZM38.608 69.652C33.4613 69.652 28.7158 68.8154 24.3572 67.158L23.2908 69.962C28.0203 71.7606 33.1307 72.652 38.608 72.652V69.652ZM24.3638 67.1605C20.056 65.4989 16.3202 63.1684 13.1407 60.1723L11.0833 62.3557C14.5598 65.6316 18.632 68.1651 23.2842 69.9595L24.3638 67.1605ZM13.1512 60.1823C10.0316 57.185 7.58386 53.6684 5.80528 49.6206L3.05872 50.8274C4.99214 55.2276 7.66442 59.071 11.0728 62.3457L13.1512 60.1823ZM5.81287 49.6382C4.10617 45.6152 3.244 41.2086 3.244 36.4H0.244C0.244 41.5754 1.17383 46.3848 3.05113 50.8098L5.81287 49.6382ZM3.244 36.4C3.244 31.5914 4.10617 27.1848 5.81287 23.1618L3.05113 21.9902C1.17383 26.4152 0.244 31.2246 0.244 36.4H3.244ZM5.80528 23.1794C7.58108 19.1379 10.0565 15.6244 13.2367 12.6277L11.1793 10.4443C7.70351 13.7196 4.99492 17.5661 3.05872 21.9726L5.80528 23.1794ZM13.2367 12.6277C16.4162 9.63161 20.152 7.3011 24.4598 5.6395L23.3802 2.84049C18.728 4.63489 14.6558 7.16838 11.1793 10.4443L13.2367 12.6277ZM24.4598 5.6395C28.7522 3.98385 33.4314 3.148 38.512 3.148V0.147999C33.0966 0.147999 28.0478 1.04015 23.3802 2.84049L24.4598 5.6395ZM38.512 3.148C43.6594 3.148 48.3353 3.98473 52.5574 5.63686L53.6506 2.84313C49.0407 1.03927 43.9887 0.147999 38.512 0.147999V3.148ZM52.5642 5.6395C56.8697 7.3002 60.5691 9.628 63.6808 12.6177L65.7592 10.4543C62.3429 7.17199 58.2983 4.63579 53.6438 2.84049L52.5642 5.6395ZM63.6913 12.6277C66.8715 15.6244 69.3469 19.1379 71.1227 23.1794L73.8693 21.9726C71.9331 17.5661 69.2245 13.7196 65.7487 10.4443L63.6913 12.6277ZM71.1262 23.1872C72.8873 27.1347 73.78 31.5313 73.78 36.4H76.78C76.78 31.1567 75.8167 26.3373 73.8658 21.9648L71.1262 23.1872ZM73.78 36.4C73.78 41.2013 72.8885 45.6369 71.1194 49.7242L73.8726 50.9158C75.8155 46.4271 76.78 41.5827 76.78 36.4H73.78ZM71.1227 49.7166C69.3469 53.7581 66.8715 57.2716 63.6913 60.2683L65.7487 62.4517C69.2245 59.1764 71.9331 55.3299 73.8693 50.9234L71.1227 49.7166ZM63.692 60.2677C60.5791 63.1974 56.8761 65.4973 52.5642 67.1605L53.6438 69.9595C58.2919 68.1667 62.3329 65.6666 65.7481 62.4523L63.692 60.2677ZM52.5574 67.1631C48.3332 68.8161 43.6889 69.652 38.608 69.652V72.652C44.0231 72.652 49.0428 71.7599 53.6506 69.9569L52.5574 67.1631ZM38.512 59.404C41.6928 59.404 44.641 58.8619 47.3373 57.7558L46.1987 54.9802C43.903 55.9221 41.3472 56.404 38.512 56.404V59.404ZM47.3251 57.7607C50.0707 56.6625 52.4828 55.0786 54.5487 53.0127L52.4273 50.8913C50.6532 52.6654 48.5853 54.0255 46.2109 54.9753L47.3251 57.7607ZM54.5487 53.0127C56.6208 50.9405 58.2049 48.4911 59.3014 45.6813L56.5066 44.5907C55.5552 47.0289 54.1952 49.1235 52.4273 50.8913L54.5487 53.0127ZM59.2896 45.7105C60.4621 42.8827 61.036 39.7723 61.036 36.4H58.036C58.036 39.4277 57.5219 42.1413 56.5184 44.5615L59.2896 45.7105ZM61.036 36.4C61.036 33.0277 60.4621 29.9173 59.2896 27.0895L56.5184 28.2385C57.5219 30.6587 58.036 33.3723 58.036 36.4H61.036ZM59.3014 27.1187C58.2049 24.3089 56.6208 21.8595 54.5487 19.7873L52.4273 21.9087C54.1952 23.6765 55.5552 25.7711 56.5066 28.2093L59.3014 27.1187ZM54.5665 19.8055C52.5585 17.7283 50.1711 16.1393 47.4211 15.0393L46.3069 17.8247C48.6769 18.7727 50.7055 20.1277 52.4095 21.8905L54.5665 19.8055ZM47.4211 15.0393C44.6684 13.9382 41.6934 13.396 38.512 13.396V16.396C41.3466 16.396 43.9396 16.8778 46.3069 17.8247L47.4211 15.0393ZM38.512 13.396C35.3306 13.396 32.3556 13.9382 29.6029 15.0393L30.7171 17.8247C33.0844 16.8778 35.6774 16.396 38.512 16.396V13.396ZM29.5907 15.0442C26.9096 16.1442 24.5349 17.7278 22.4753 19.7873L24.5967 21.9087C26.3771 20.1282 28.4184 18.7678 30.7293 17.8198L29.5907 15.0442ZM22.4753 19.7873C20.4098 21.8529 18.7982 24.2922 17.6384 27.0895L20.4096 28.2385C21.4258 25.7878 22.8222 23.6831 24.5967 21.9087L22.4753 19.7873ZM17.6266 27.1187C16.5262 29.9385 15.988 33.0386 15.988 36.4H18.988C18.988 33.3614 19.4738 30.6375 20.4214 28.2093L17.6266 27.1187ZM15.988 36.4C15.988 39.702 16.5277 42.7967 17.6223 45.67L20.4257 44.602C19.4723 42.0993 18.988 39.37 18.988 36.4H15.988ZM17.6384 45.7105C18.7938 48.4972 20.3665 50.9307 22.3615 52.9945L24.5185 50.9095C22.8015 49.1333 21.4302 47.0228 20.4096 44.5615L17.6384 45.7105ZM22.3793 53.0127C24.4452 55.0786 26.8573 56.6625 29.6029 57.7607L30.7171 54.9753C28.3427 54.0255 26.2748 52.6654 24.5007 50.8913L22.3793 53.0127ZM29.6029 57.7607C32.3556 58.8618 35.3306 59.404 38.512 59.404V56.404C35.6774 56.404 33.0844 55.9222 30.7171 54.9753L29.6029 57.7607ZM94.456 63.184L95.5103 62.117L95.5103 62.117L94.456 63.184ZM86.392 2.8V1.3H84.892V2.8H86.392ZM101.944 2.8H103.444V1.3H101.944V2.8ZM105.88 53.68L104.783 54.7026L104.783 54.7026L105.88 53.68ZM127.96 53.68L129.057 54.7026L129.057 54.7026L127.96 53.68ZM131.896 2.8V1.3H130.396V2.8H131.896ZM147.256 2.8H148.756V1.3H147.256V2.8ZM139.192 63.184L140.246 64.251L140.246 64.251L139.192 63.184ZM116.824 69.652C107.574 69.652 100.537 67.0836 95.5103 62.117L93.4017 64.251C99.1273 69.9084 107.002 72.652 116.824 72.652V69.652ZM95.5103 62.117C90.4988 57.1651 87.892 50.0142 87.892 40.432H84.892C84.892 50.5618 87.6612 58.5789 93.4017 64.251L95.5103 62.117ZM87.892 40.432V2.8H84.892V40.432H87.892ZM86.392 4.3H101.944V1.3H86.392V4.3ZM100.444 2.8V39.856H103.444V2.8H100.444ZM100.444 39.856C100.444 46.3999 101.775 51.4746 104.783 54.7026L106.977 52.6574C104.737 50.2534 103.444 46.1121 103.444 39.856H100.444ZM104.783 54.7026C107.754 57.891 111.871 59.404 116.92 59.404V56.404C112.497 56.404 109.254 55.101 106.977 52.6574L104.783 54.7026ZM116.92 59.404C121.969 59.404 126.086 57.891 129.057 54.7026L126.863 52.6574C124.586 55.101 121.343 56.404 116.92 56.404V59.404ZM129.057 54.7026C132.065 51.4746 133.396 46.3999 133.396 39.856H130.396C130.396 46.1121 129.103 50.2534 126.863 52.6574L129.057 54.7026ZM133.396 39.856V2.8H130.396V39.856H133.396ZM131.896 4.3H147.256V1.3H131.896V4.3ZM145.756 2.8V40.432H148.756V2.8H145.756ZM145.756 40.432C145.756 50.0142 143.149 57.1651 138.138 62.117L140.246 64.251C145.987 58.5789 148.756 50.5618 148.756 40.432H145.756ZM138.138 62.117C133.111 67.0836 126.074 69.652 116.824 69.652V72.652C126.646 72.652 134.521 69.9084 140.246 64.251L138.138 62.117ZM162.624 70H161.124V71.5H162.624V70ZM162.624 2.8V1.3H161.124V2.8H162.624ZM207.264 5.776L206.642 7.14086L206.65 7.14467L206.659 7.14837L207.264 5.776ZM217.344 14.128L216.086 14.9447L216.086 14.9447L217.344 14.128ZM217.344 40.144L218.596 40.9709L218.602 40.9607L217.344 40.144ZM207.264 48.4L207.87 49.7724L207.87 49.7724L207.264 48.4ZM171.264 51.28L170.211 50.2119L167.607 52.78H171.264V51.28ZM178.176 44.464H179.676V40.8782L177.123 43.3959L178.176 44.464ZM178.176 70V71.5H179.676V70H178.176ZM205.344 70L204.109 70.851L204.556 71.5H205.344V70ZM188.544 45.616V44.116H185.689L187.309 46.467L188.544 45.616ZM205.152 45.616L206.383 44.7584L205.935 44.116H205.152V45.616ZM222.144 70V71.5H225.018L223.375 69.1424L222.144 70ZM178.176 46.192L177.087 47.2236L179.676 49.9564V46.192H178.176ZM171.264 38.896V37.396H167.777L170.175 39.9276L171.264 38.896ZM201.6 35.824L202.581 36.9585L202.59 36.9511L202.599 36.9434L201.6 35.824ZM171.264 15.472L170.169 14.4475L167.808 16.972H171.264V15.472ZM178.176 8.08H179.676V4.27962L177.081 7.05551L178.176 8.08ZM164.124 70V2.8H161.124V70H164.124ZM162.624 4.3H191.712V1.3H162.624V4.3ZM191.712 4.3C197.567 4.3 202.529 5.26576 206.642 7.14086L207.886 4.41114C203.296 2.31823 197.889 1.3 191.712 1.3V4.3ZM206.659 7.14837C210.77 8.96207 213.892 11.5643 216.086 14.9447L218.602 13.3113C216.061 9.39568 212.463 6.42992 207.87 4.40362L206.659 7.14837ZM216.086 14.9447C218.272 18.3121 219.396 22.3697 219.396 27.184H222.396C222.396 21.8863 221.153 17.2399 218.602 13.3113L216.086 14.9447ZM219.396 27.184C219.396 31.9301 218.274 35.9569 216.086 39.3273L218.602 40.9607C221.151 37.0351 222.396 32.4219 222.396 27.184H219.396ZM216.093 39.3171C213.9 42.6357 210.777 45.2108 206.659 47.0276L207.87 49.7724C212.456 47.7492 216.052 44.8203 218.596 40.9709L216.093 39.3171ZM206.659 47.0276C202.541 48.8443 197.573 49.78 191.712 49.78V52.78C197.883 52.78 203.284 51.7957 207.87 49.7724L206.659 47.0276ZM191.712 49.78H171.264V52.78H191.712V49.78ZM172.317 52.3481L179.229 45.5321L177.123 43.3959L170.211 50.2119L172.317 52.3481ZM176.676 44.464V70H179.676V44.464H176.676ZM178.176 68.5H162.624V71.5H178.176V68.5ZM206.579 69.149L189.779 44.765L187.309 46.467L204.109 70.851L206.579 69.149ZM188.544 47.116H205.152V44.116H188.544V47.116ZM203.922 46.4736L220.914 70.8576L223.375 69.1424L206.383 44.7584L203.922 46.4736ZM222.144 68.5H205.344V71.5H222.144V68.5ZM179.265 45.1604L172.353 37.8644L170.175 39.9276L177.087 47.2236L179.265 45.1604ZM171.264 40.396H190.848V37.396H171.264V40.396ZM190.848 40.396C195.824 40.396 199.828 39.3399 202.581 36.9585L200.619 34.6895C198.636 36.4041 195.472 37.396 190.848 37.396V40.396ZM202.599 36.9434C205.335 34.5029 206.652 31.1889 206.652 27.184H203.652C203.652 30.4751 202.601 32.9211 200.602 34.7046L202.599 36.9434ZM206.652 27.184C206.652 23.1254 205.341 19.7958 202.581 17.4095L200.619 19.6785C202.596 21.3882 203.652 23.8186 203.652 27.184H206.652ZM202.581 17.4095C199.828 15.0281 195.824 13.972 190.848 13.972V16.972C195.472 16.972 198.636 17.9639 200.619 19.6785L202.581 17.4095ZM190.848 13.972H171.264V16.972H190.848V13.972ZM172.36 16.4965L179.272 9.10449L177.081 7.05551L170.169 14.4475L172.36 16.4965ZM176.676 8.08V46.192H179.676V8.08H176.676ZM267.03 69.04L266.6 70.4773L266.609 70.4798L266.617 70.4823L267.03 69.04ZM255.126 63.376L253.758 62.7595L253.269 63.8437L254.213 64.5668L255.126 63.376ZM260.406 51.664L261.275 50.4416L259.788 49.3842L259.038 51.0475L260.406 51.664ZM270.582 56.752L270.093 58.1703L270.107 58.1751L270.121 58.1796L270.582 56.752ZM289.974 57.808L290.418 59.2406L290.433 59.236L290.448 59.231L289.974 57.808ZM294.198 55.216L293.04 54.2624L293.04 54.2624L294.198 55.216ZM293.43 47.248L292.512 48.4349L292.53 48.4483L292.547 48.4611L293.43 47.248ZM287.862 44.656L287.423 46.0905L287.442 46.0961L287.46 46.1013L287.862 44.656ZM280.182 42.736L279.842 44.197L279.861 44.2016L279.881 44.2056L280.182 42.736ZM271.83 40.432L271.365 41.8583L271.375 41.8614L271.83 40.432ZM264.246 36.976L263.463 38.2559L263.463 38.2559L264.246 36.976ZM258.582 31.408L257.302 32.1902L257.309 32.203L257.317 32.2156L258.582 31.408ZM259.542 12.112L258.29 11.2857L258.286 11.2918L259.542 12.112ZM268.95 4.528L269.561 5.89788L269.57 5.89355L268.95 4.528ZM297.27 3.184L296.906 4.63921L296.916 4.64189L296.927 4.64442L297.27 3.184ZM308.118 7.6L309.507 8.16487L309.979 7.00295L308.919 6.33238L308.118 7.6ZM303.318 19.408L302.573 20.7104L304.062 21.5608L304.707 19.9729L303.318 19.408ZM293.91 15.472L293.497 16.9143L293.511 16.9182L293.525 16.9218L293.91 15.472ZM277.302 15.184L276.785 13.7757L276.785 13.7757L277.302 15.184ZM273.174 17.968L274.365 18.8792L274.378 18.8629L274.39 18.8462L273.174 17.968ZM274.038 26.032L273.12 27.2189L273.138 27.2323L273.155 27.2451L274.038 26.032ZM279.606 28.528L279.204 29.9733L279.204 29.9733L279.606 28.528ZM287.19 30.448L286.85 31.909L286.857 31.9107L287.19 30.448ZM295.542 32.656L295.107 34.0918L295.116 34.0945L295.542 32.656ZM303.222 36.016L304.004 34.7361L304.004 34.7361L303.222 36.016ZM308.79 41.584L307.51 42.3662L307.517 42.379L307.525 42.3916L308.79 41.584ZM307.83 60.688L309.074 61.5259L309.074 61.5259L307.83 60.688ZM298.326 68.272L297.705 66.9064L297.697 66.9101L298.326 68.272ZM282.486 69.652C277.242 69.652 272.229 68.9656 267.442 67.5977L266.617 70.4823C271.686 71.9304 276.977 72.652 282.486 72.652V69.652ZM267.459 67.6027C262.647 66.1655 258.859 64.3466 256.038 62.1852L254.213 64.5668C257.408 67.0134 261.556 68.9705 266.6 70.4773L267.459 67.6027ZM256.493 63.9925L261.773 52.2805L259.038 51.0475L253.758 62.7595L256.493 63.9925ZM259.536 52.8864C262.551 55.0302 266.076 56.7872 270.093 58.1703L271.07 55.3337C267.279 54.0288 264.02 52.3938 261.275 50.4416L259.536 52.8864ZM270.121 58.1796C274.233 59.5059 278.388 60.172 282.582 60.172V57.172C278.711 57.172 274.866 56.5581 271.042 55.3244L270.121 58.1796ZM282.582 60.172C285.728 60.172 288.36 59.8794 290.418 59.2406L289.529 56.3754C287.875 56.8886 285.579 57.172 282.582 57.172V60.172ZM290.448 59.231C292.525 58.5387 294.218 57.5504 295.355 56.1696L293.04 54.2624C292.385 55.0576 291.262 55.7973 289.499 56.385L290.448 59.231ZM295.355 56.1696C296.472 54.8133 297.042 53.2283 297.042 51.472H294.042C294.042 52.5317 293.715 53.4427 293.04 54.2624L295.355 56.1696ZM297.042 51.472C297.042 49.2167 296.121 47.3508 294.312 46.0349L292.547 48.4611C293.554 49.1932 294.042 50.1433 294.042 51.472H297.042ZM294.347 46.0611C292.742 44.8212 290.693 43.8858 288.263 43.2107L287.46 46.1013C289.638 46.7062 291.301 47.4988 292.512 48.4349L294.347 46.0611ZM288.3 43.2215C285.943 42.5013 283.336 41.8502 280.482 41.2664L279.881 44.2056C282.659 44.7738 285.172 45.4027 287.423 46.0905L288.3 43.2215ZM280.521 41.275C277.81 40.6444 275.064 39.8871 272.284 39.0026L271.375 41.8614C274.227 42.7689 277.049 43.5476 279.842 44.197L280.521 41.275ZM272.294 39.0057C269.645 38.1433 267.225 37.0388 265.028 35.6961L263.463 38.2559C265.874 39.7291 268.51 40.9287 271.365 41.8583L272.294 39.0057ZM265.028 35.6961C262.921 34.4084 261.196 32.7149 259.846 30.6004L257.317 32.2156C258.911 34.7091 260.962 36.7276 263.463 38.2559L265.028 35.6961ZM259.861 30.6258C258.637 28.6225 257.97 25.9719 257.97 22.576H254.97C254.97 26.3481 255.71 29.5855 257.302 32.1902L259.861 30.6258ZM257.97 22.576C257.97 19.0195 258.913 15.8178 260.797 12.9322L258.286 11.2918C256.074 14.6781 254.97 18.4525 254.97 22.576H257.97ZM260.793 12.9383C262.72 10.0185 265.612 7.65959 269.561 5.89784L268.338 3.15815C263.967 5.1084 260.587 7.80547 258.29 11.2857L260.793 12.9383ZM269.57 5.89355C273.542 4.08829 278.594 3.148 284.79 3.148V0.147999C278.313 0.147999 272.805 1.1277 268.329 3.16245L269.57 5.89355ZM284.79 3.148C288.891 3.148 292.929 3.64497 296.906 4.63921L297.633 1.72878C293.418 0.675025 289.136 0.147999 284.79 0.147999V3.148ZM296.927 4.64442C300.882 5.57128 304.338 6.98416 307.316 8.86761L308.919 6.33238C305.625 4.24783 301.849 2.71671 297.612 1.72357L296.927 4.64442ZM306.728 7.03513L301.928 18.8431L304.707 19.9729L309.507 8.16487L306.728 7.03513ZM304.062 18.1056C300.825 16.2563 297.569 14.891 294.294 14.0222L293.525 16.9218C296.522 17.717 299.538 18.9757 302.573 20.7104L304.062 18.1056ZM294.322 14.0297C291.063 13.0986 287.852 12.628 284.694 12.628V15.628C287.551 15.628 290.484 16.0534 293.497 16.9143L294.322 14.0297ZM284.694 12.628C281.585 12.628 278.929 12.9896 276.785 13.7757L277.818 16.5923C279.514 15.9704 281.786 15.628 284.694 15.628V12.628ZM276.785 13.7757C274.702 14.5395 273.026 15.6104 271.957 17.0898L274.39 18.8462C274.985 18.0216 276.061 17.2365 277.818 16.5923L276.785 13.7757ZM271.982 17.0568C270.935 18.4265 270.426 20.0328 270.426 21.808H273.426C273.426 20.6391 273.748 19.6855 274.365 18.8792L271.982 17.0568ZM270.426 21.808C270.426 24.0165 271.358 25.8568 273.12 27.2189L274.955 24.8451C273.901 24.0312 273.426 23.0555 273.426 21.808H270.426ZM273.155 27.2451C274.751 28.406 276.787 29.302 279.204 29.9733L280.007 27.0827C277.816 26.474 276.14 25.706 274.92 24.8189L273.155 27.2451ZM279.204 29.9733C281.532 30.6199 284.081 31.265 286.85 31.909L287.529 28.987C284.794 28.351 282.287 27.7161 280.007 27.0827L279.204 29.9733ZM286.857 31.9107C289.639 32.543 292.389 33.27 295.107 34.0918L295.976 31.2202C293.19 30.378 290.372 29.633 287.522 28.9853L286.857 31.9107ZM295.116 34.0945C297.818 34.8927 300.256 35.9618 302.439 37.2959L304.004 34.7361C301.579 33.2542 298.897 32.0833 295.967 31.2175L295.116 34.0945ZM302.439 37.2959C304.54 38.5798 306.226 40.2652 307.51 42.3662L310.069 40.8018C308.537 38.2948 306.511 36.2682 304.004 34.7361L302.439 37.2959ZM307.525 42.3916C308.805 44.394 309.498 47.0049 309.498 50.32H312.498C312.498 46.5951 311.718 43.382 310.054 40.7764L307.525 42.3916ZM309.498 50.32C309.498 53.7971 308.531 56.9614 306.585 59.8501L309.074 61.5259C311.352 58.1426 312.498 54.3949 312.498 50.32H309.498ZM306.585 59.8501C304.66 62.7087 301.734 65.0752 297.705 66.9065L298.946 69.6375C303.365 67.6288 306.775 64.9393 309.074 61.5259L306.585 59.8501ZM297.697 66.9101C293.796 68.7105 288.749 69.652 282.486 69.652V72.652C289.022 72.652 294.535 71.6735 298.954 69.6339L297.697 66.9101ZM334.607 70H333.107V71.5H334.607V70ZM334.607 15.472H336.107V13.972H334.607V15.472ZM313.103 15.472H311.603V16.972H313.103V15.472ZM313.103 2.8V1.3H311.603V2.8H313.103ZM371.663 2.8H373.163V1.3H371.663V2.8ZM371.663 15.472V16.972H373.163V15.472H371.663ZM350.159 15.472V13.972H348.659V15.472H350.159ZM350.159 70V71.5H351.659V70H350.159ZM336.107 70V15.472H333.107V70H336.107ZM334.607 13.972H313.103V16.972H334.607V13.972ZM314.603 15.472V2.8H311.603V15.472H314.603ZM313.103 4.3H371.663V1.3H313.103V4.3ZM370.163 2.8V15.472H373.163V2.8H370.163ZM371.663 13.972H350.159V16.972H371.663V13.972ZM348.659 15.472V70H351.659V15.472H348.659ZM350.159 68.5H334.607V71.5H350.159V68.5ZM396.949 68.56L396.409 69.9595L396.416 69.962L396.949 68.56ZM385.237 61.264L384.198 62.3457L384.203 62.3507L384.208 62.3557L385.237 61.264ZM377.557 50.224L376.176 50.8098L376.18 50.8186L376.184 50.8274L377.557 50.224ZM377.557 22.576L376.184 21.9726L376.18 21.9814L376.176 21.9902L377.557 22.576ZM397.045 4.23999L396.505 2.84049L396.505 2.84049L397.045 4.23999ZM426.229 4.23999L425.682 5.63688L425.689 5.6395L426.229 4.23999ZM437.845 11.536L436.806 12.6177L436.811 12.6227L436.816 12.6277L437.845 11.536ZM445.621 22.576L444.248 23.1794L444.251 23.1872L445.621 22.576ZM445.621 50.32L446.994 50.9234L446.998 50.9158L445.621 50.32ZM437.845 61.36L438.873 62.4523L438.874 62.4517L437.845 61.36ZM426.229 68.56L425.689 67.1605L425.682 67.1631L426.229 68.56ZM419.893 56.368L419.336 54.9752L419.324 54.9802L419.893 56.368ZM426.613 51.952L425.552 50.8913L425.552 50.8913L426.613 51.952ZM431.029 45.136L429.643 44.5615L429.637 44.576L429.632 44.5907L431.029 45.136ZM431.029 27.664L429.632 28.2093L429.637 28.224L429.643 28.2385L431.029 27.664ZM426.613 20.848L425.535 21.8905L425.543 21.8997L425.552 21.9087L426.613 20.848ZM419.989 16.432L419.432 17.8247L419.432 17.8247L419.989 16.432ZM403.285 16.432L402.728 15.0392L402.716 15.0442L403.285 16.432ZM396.661 20.848L397.722 21.9087L397.722 21.9087L396.661 20.848ZM392.149 27.664L390.763 27.0895L390.757 27.104L390.752 27.1187L392.149 27.664ZM392.149 45.136L390.747 45.67L390.755 45.6904L390.763 45.7105L392.149 45.136ZM396.565 51.952L395.487 52.9945L395.495 53.0037L395.504 53.0127L396.565 51.952ZM403.285 56.368L402.728 57.7607L402.728 57.7607L403.285 56.368ZM411.733 69.652C406.586 69.652 401.841 68.8154 397.482 67.158L396.416 69.962C401.145 71.7606 406.256 72.652 411.733 72.652V69.652ZM397.489 67.1605C393.181 65.4989 389.445 63.1684 386.266 60.1723L384.208 62.3557C387.685 65.6316 391.757 68.1651 396.409 69.9595L397.489 67.1605ZM386.276 60.1823C383.157 57.185 380.709 53.6684 378.93 49.6206L376.184 50.8274C378.117 55.2276 380.789 59.071 384.198 62.3457L386.276 60.1823ZM378.938 49.6382C377.231 45.6152 376.369 41.2086 376.369 36.4H373.369C373.369 41.5754 374.299 46.3848 376.176 50.8098L378.938 49.6382ZM376.369 36.4C376.369 31.5914 377.231 27.1848 378.938 23.1618L376.176 21.9902C374.299 26.4152 373.369 31.2246 373.369 36.4H376.369ZM378.93 23.1794C380.706 19.1379 383.181 15.6244 386.362 12.6277L384.304 10.4443C380.829 13.7196 378.12 17.5661 376.184 21.9726L378.93 23.1794ZM386.362 12.6277C389.541 9.63161 393.277 7.3011 397.585 5.6395L396.505 2.84049C391.853 4.63489 387.781 7.16838 384.304 10.4443L386.362 12.6277ZM397.585 5.6395C401.877 3.98385 406.556 3.148 411.637 3.148V0.147999C406.222 0.147999 401.173 1.04015 396.505 2.84049L397.585 5.6395ZM411.637 3.148C416.784 3.148 421.46 3.98473 425.682 5.63686L426.776 2.84313C422.166 1.03927 417.114 0.147999 411.637 0.147999V3.148ZM425.689 5.6395C429.995 7.3002 433.694 9.628 436.806 12.6177L438.884 10.4543C435.468 7.17199 431.423 4.63579 426.769 2.84049L425.689 5.6395ZM436.816 12.6277C439.997 15.6244 442.472 19.1379 444.248 23.1794L446.994 21.9726C445.058 17.5661 442.349 13.7196 438.874 10.4443L436.816 12.6277ZM444.251 23.1872C446.012 27.1347 446.905 31.5313 446.905 36.4H449.905C449.905 31.1567 448.942 26.3373 446.991 21.9648L444.251 23.1872ZM446.905 36.4C446.905 41.2013 446.014 45.6369 444.244 49.7242L446.998 50.9158C448.94 46.4271 449.905 41.5827 449.905 36.4H446.905ZM444.248 49.7166C442.472 53.7581 439.997 57.2716 436.816 60.2683L438.874 62.4517C442.349 59.1764 445.058 55.3299 446.994 50.9234L444.248 49.7166ZM436.817 60.2677C433.704 63.1974 430.001 65.4973 425.689 67.1605L426.769 69.9595C431.417 68.1667 435.458 65.6666 438.873 62.4523L436.817 60.2677ZM425.682 67.1631C421.458 68.8161 416.814 69.652 411.733 69.652V72.652C417.148 72.652 422.168 71.7599 426.776 69.9569L425.682 67.1631ZM411.637 59.404C414.818 59.404 417.766 58.8619 420.462 57.7558L419.324 54.9802C417.028 55.9221 414.472 56.404 411.637 56.404V59.404ZM420.45 57.7607C423.196 56.6625 425.608 55.0786 427.674 53.0127L425.552 50.8913C423.778 52.6654 421.71 54.0255 419.336 54.9753L420.45 57.7607ZM427.674 53.0127C429.746 50.9405 431.33 48.4911 432.426 45.6813L429.632 44.5907C428.68 47.0289 427.32 49.1235 425.552 50.8913L427.674 53.0127ZM432.415 45.7105C433.587 42.8827 434.161 39.7723 434.161 36.4H431.161C431.161 39.4277 430.647 42.1413 429.643 44.5615L432.415 45.7105ZM434.161 36.4C434.161 33.0277 433.587 29.9173 432.415 27.0895L429.643 28.2385C430.647 30.6587 431.161 33.3723 431.161 36.4H434.161ZM432.426 27.1187C431.33 24.3089 429.746 21.8595 427.674 19.7873L425.552 21.9087C427.32 23.6765 428.68 25.7711 429.632 28.2093L432.426 27.1187ZM427.691 19.8055C425.684 17.7283 423.296 16.1393 420.546 15.0393L419.432 17.8247C421.802 18.7727 423.83 20.1277 425.535 21.8905L427.691 19.8055ZM420.546 15.0393C417.793 13.9382 414.818 13.396 411.637 13.396V16.396C414.472 16.396 417.065 16.8778 419.432 17.8247L420.546 15.0393ZM411.637 13.396C408.456 13.396 405.481 13.9382 402.728 15.0393L403.842 17.8247C406.209 16.8778 408.802 16.396 411.637 16.396V13.396ZM402.716 15.0442C400.035 16.1442 397.66 17.7278 395.6 19.7873L397.722 21.9087C399.502 20.1282 401.543 18.7678 403.854 17.8198L402.716 15.0442ZM395.6 19.7873C393.535 21.8529 391.923 24.2922 390.763 27.0895L393.535 28.2385C394.551 25.7878 395.947 23.6831 397.722 21.9087L395.6 19.7873ZM390.752 27.1187C389.651 29.9385 389.113 33.0386 389.113 36.4H392.113C392.113 33.3614 392.599 30.6375 393.546 28.2093L390.752 27.1187ZM389.113 36.4C389.113 39.702 389.653 42.7967 390.747 45.67L393.551 44.602C392.597 42.0993 392.113 39.37 392.113 36.4H389.113ZM390.763 45.7105C391.919 48.4972 393.492 50.9307 395.487 52.9945L397.643 50.9095C395.926 49.1333 394.555 47.0228 393.535 44.5615L390.763 45.7105ZM395.504 53.0127C397.57 55.0786 399.982 56.6625 402.728 57.7607L403.842 54.9753C401.468 54.0255 399.4 52.6654 397.626 50.8913L395.504 53.0127ZM402.728 57.7607C405.481 58.8618 408.456 59.404 411.637 59.404V56.404C408.802 56.404 406.209 55.9222 403.842 54.9753L402.728 57.7607ZM460.093 70H458.593V71.5H460.093V70ZM460.093 2.8V1.3H458.593V2.8H460.093ZM504.733 5.776L504.111 7.14086L504.119 7.14467L504.128 7.14837L504.733 5.776ZM514.813 14.128L513.555 14.9447L513.555 14.9447L514.813 14.128ZM514.813 40.144L516.065 40.9709L516.071 40.9607L514.813 40.144ZM504.733 48.4L505.338 49.7724L505.338 49.7724L504.733 48.4ZM468.733 51.28L467.68 50.2119L465.076 52.78H468.733V51.28ZM475.645 44.464H477.145V40.8782L474.592 43.3959L475.645 44.464ZM475.645 70V71.5H477.145V70H475.645ZM502.813 70L501.578 70.851L502.025 71.5H502.813V70ZM486.013 45.616V44.116H483.158L484.778 46.467L486.013 45.616ZM502.621 45.616L503.852 44.7584L503.404 44.116H502.621V45.616ZM519.613 70V71.5H522.487L520.844 69.1424L519.613 70ZM475.645 46.192L474.556 47.2236L477.145 49.9564V46.192H475.645ZM468.733 38.896V37.396H465.246L467.644 39.9276L468.733 38.896ZM499.069 35.824L500.05 36.9585L500.059 36.9511L500.067 36.9434L499.069 35.824ZM468.733 15.472L467.637 14.4475L465.277 16.972H468.733V15.472ZM475.645 8.08H477.145V4.27962L474.549 7.05551L475.645 8.08ZM461.593 70V2.8H458.593V70H461.593ZM460.093 4.3H489.181V1.3H460.093V4.3ZM489.181 4.3C495.036 4.3 499.998 5.26576 504.111 7.14086L505.355 4.41114C500.764 2.31823 495.358 1.3 489.181 1.3V4.3ZM504.128 7.14837C508.239 8.96207 511.361 11.5643 513.555 14.9447L516.071 13.3113C513.529 9.39568 509.931 6.42992 505.338 4.40362L504.128 7.14837ZM513.555 14.9447C515.741 18.3121 516.865 22.3697 516.865 27.184H519.865C519.865 21.8863 518.621 17.2399 516.071 13.3113L513.555 14.9447ZM516.865 27.184C516.865 31.9301 515.743 35.9569 513.555 39.3273L516.071 40.9607C518.619 37.0351 519.865 32.4219 519.865 27.184H516.865ZM513.562 39.3171C511.369 42.6357 508.246 45.2108 504.128 47.0276L505.338 49.7724C509.924 47.7492 513.521 44.8203 516.065 40.9709L513.562 39.3171ZM504.128 47.0276C500.01 48.8443 495.042 49.78 489.181 49.78V52.78C495.352 52.78 500.752 51.7957 505.338 49.7724L504.128 47.0276ZM489.181 49.78H468.733V52.78H489.181V49.78ZM469.786 52.3481L476.698 45.5321L474.592 43.3959L467.68 50.2119L469.786 52.3481ZM474.145 44.464V70H477.145V44.464H474.145ZM475.645 68.5H460.093V71.5H475.645V68.5ZM504.048 69.149L487.248 44.765L484.778 46.467L501.578 70.851L504.048 69.149ZM486.013 47.116H502.621V44.116H486.013V47.116ZM501.39 46.4736L518.382 70.8576L520.844 69.1424L503.852 44.7584L501.39 46.4736ZM519.613 68.5H502.813V71.5H519.613V68.5ZM476.734 45.1604L469.822 37.8644L467.644 39.9276L474.556 47.2236L476.734 45.1604ZM468.733 40.396H488.317V37.396H468.733V40.396ZM488.317 40.396C493.293 40.396 497.297 39.3399 500.05 36.9585L498.088 34.6895C496.105 36.4041 492.941 37.396 488.317 37.396V40.396ZM500.067 36.9434C502.804 34.5029 504.121 31.1889 504.121 27.184H501.121C501.121 30.4751 500.07 32.9211 498.071 34.7046L500.067 36.9434ZM504.121 27.184C504.121 23.1254 502.809 19.7958 500.05 17.4095L498.088 19.6785C500.065 21.3882 501.121 23.8186 501.121 27.184H504.121ZM500.05 17.4095C497.297 15.0281 493.293 13.972 488.317 13.972V16.972C492.941 16.972 496.105 17.9639 498.088 19.6785L500.05 17.4095ZM488.317 13.972H468.733V16.972H488.317V13.972ZM469.829 16.4965L476.741 9.10449L474.549 7.05551L467.637 14.4475L469.829 16.4965ZM474.145 8.08V46.192H477.145V8.08H474.145ZM546.453 70H544.953V71.5H546.453V70ZM546.453 42.544L547.857 42.0142L544.953 42.544H546.453ZM550.005 51.952L548.72 52.7252L551.409 51.4222L550.005 51.952ZM520.437 2.8V1.3H517.784L519.152 3.57322L520.437 2.8ZM536.949 2.8L538.235 2.02777L537.798 1.3H536.949V2.8ZM559.605 40.528V42.028H562.256L560.891 39.7558L559.605 40.528ZM550.101 40.528L548.817 39.7534L547.445 42.028H550.101V40.528ZM572.853 2.8V1.3H572.006L571.569 2.02537L572.853 2.8ZM588.117 2.8L589.403 3.57322L590.77 1.3H588.117V2.8ZM558.549 51.952L557.141 51.4348L559.835 52.7252L558.549 51.952ZM562.005 42.544H563.505L560.597 42.0268L562.005 42.544ZM562.005 70V71.5H563.505V70H562.005ZM547.953 70V42.544H544.953V70H547.953ZM545.05 43.0738L548.602 52.4818L551.409 51.4222L547.857 42.0142L545.05 43.0738ZM551.291 51.1788L521.723 2.02678L519.152 3.57322L548.72 52.7252L551.291 51.1788ZM520.437 4.3H536.949V1.3H520.437V4.3ZM535.663 3.57222L558.319 41.3002L560.891 39.7558L538.235 2.02777L535.663 3.57222ZM559.605 39.028H550.101V42.028H559.605V39.028ZM551.386 41.3026L574.138 3.57462L571.569 2.02537L548.817 39.7534L551.386 41.3026ZM572.853 4.3H588.117V1.3H572.853V4.3ZM586.832 2.02678L557.264 51.1788L559.835 52.7252L589.403 3.57322L586.832 2.02678ZM559.957 52.4692L563.413 43.0612L560.597 42.0268L557.141 51.4348L559.957 52.4692ZM560.505 42.544V70H563.505V42.544H560.505ZM562.005 68.5H546.453V71.5H562.005V68.5ZM700.398 48.976H698.898V50.476H700.398V48.976ZM700.398 36.976V35.476H698.898V36.976H700.398ZM727.566 36.976H729.066V35.476H727.566V36.976ZM727.566 48.976V50.476H729.066V48.976H727.566ZM701.898 48.976V36.976H698.898V48.976H701.898ZM700.398 38.476H727.566V35.476H700.398V38.476ZM726.066 36.976V48.976H729.066V36.976H726.066ZM727.566 47.476H700.398V50.476H727.566V47.476Z" fill="white" mask="url(#path-1-outside-1_153_2)"/>
</svg>
